<svg width="206" height="236" viewBox="0 0 206 236" fill="none" xmlns="http://www.w3.org/2000/svg">
<g filter="url(#filter0_f_101_233)">
<ellipse cx="102.916" cy="154.195" rx="44.807" ry="23.8712" fill="#01319D" fill-opacity="0.3"/>
</g>
<path d="M24.2771 43.6007C24.2771 31.3329 34.2222 21.3878 46.49 21.3878H164.164C176.431 21.3878 186.377 31.3329 186.377 43.6007V180.625H24.2771V43.6007Z" fill="url(#paint0_linear_101_233)"/>
<path d="M35.3796 43.6012C35.3796 37.4672 40.3522 32.4947 46.4861 32.4947H164.215C170.348 32.4947 175.321 37.4672 175.321 43.6012V179.548H35.3796V43.6012Z" stroke="#01319D" stroke-width="2"/>
<circle cx="156.239" cy="49.5312" r="5.55323" fill="#00F0FF"/>
<circle cx="142.349" cy="49.5312" r="5.55323" fill="#FFCC00"/>
<circle cx="105.362" cy="123.548" r="39.6781" fill="#D4E7F4" fill-opacity="0.39"/>
<mask id="mask0_101_233" style="mask-type:alpha" maskUnits="userSpaceOnUse" x="65" y="83" width="81" height="81">
<circle cx="105.362" cy="123.548" r="39.6781" fill="#D4E7F4" fill-opacity="0.39"/>
</mask>
<g mask="url(#mask0_101_233)">
<rect x="33.8387" y="168.132" width="145.026" height="21.7096" transform="rotate(-45.9637 33.8387 168.132)" fill="white" fill-opacity="0.5"/>
<rect x="70.6656" y="176.484" width="145.026" height="7.53293" transform="rotate(-45.9637 70.6656 176.484)" fill="white" fill-opacity="0.5"/>
</g>
<circle cx="105.362" cy="123.548" r="39.6781" stroke="#01319D" stroke-width="2"/>
<path fill-rule="evenodd" clip-rule="evenodd" d="M52.9665 43.977C52.9265 43.9761 52.8864 43.9757 52.8462 43.9757C49.7792 43.9757 47.293 46.462 47.293 49.5289C47.293 52.5947 49.7773 55.0802 52.8426 55.0822V55.0834H73.1768V55.0769C73.2672 55.0812 73.3581 55.0834 73.4496 55.0834C76.5165 55.0834 79.0028 52.5972 79.0028 49.5302C79.0028 46.4632 76.5165 43.977 73.4496 43.977C73.3581 43.977 73.2672 43.9792 73.1768 43.9836V43.977H52.9665Z" fill="#01319D"/>
<path d="M35.4545 65.6525H175.268" stroke="#01319D" stroke-width="2"/>
<path d="M17.2921 188.07C17.2921 183.959 20.6251 180.626 24.7366 180.626H185.937C190.048 180.626 193.381 183.959 193.381 188.07V188.07C193.381 192.182 190.048 195.515 185.937 195.515H24.7366C20.6251 195.515 17.2921 192.182 17.2921 188.07V188.07Z" fill="url(#paint1_linear_101_233)"/>
<path d="M71.8146 16.2465C71.8146 13.4071 74.1164 11.1052 76.9559 11.1052H133.697C136.537 11.1052 138.839 13.4071 138.839 16.2465V16.2465C138.839 19.086 136.537 21.3879 133.697 21.3879H76.9559C74.1164 21.3879 71.8146 19.086 71.8146 16.2465V16.2465Z" fill="#D4E7F4"/>
<path d="M76.2089 5.96397C76.2089 3.12449 78.5107 0.822632 81.3502 0.822632H129.303C132.143 0.822632 134.444 3.12449 134.444 5.96397V5.96397C134.444 8.80345 132.143 11.1053 129.303 11.1053H81.3502C78.5107 11.1053 76.2089 8.80345 76.2089 5.96397V5.96397Z" fill="#D4E7F4"/>
<defs>
<filter id="filter0_f_101_233" x="0.347332" y="72.5623" width="205.137" height="163.265" filterUnits="userSpaceOnUse" color-interpolation-filters="sRGB">
<feFlood flood-opacity="0" result="BackgroundImageFix"/>
<feBlend mode="normal" in="SourceGraphic" in2="BackgroundImageFix" result="shape"/>
<feGaussianBlur stdDeviation="28.8807" result="effect1_foregroundBlur_101_233"/>
</filter>
<linearGradient id="paint0_linear_101_233" x1="105.327" y1="-5.814" x2="105.327" y2="162.682" gradientUnits="userSpaceOnUse">
<stop stop-color="#00D1FF"/>
<stop offset="1" stop-color="#01319D"/>
</linearGradient>
<linearGradient id="paint1_linear_101_233" x1="105.337" y1="180.626" x2="105.337" y2="195.515" gradientUnits="userSpaceOnUse">
<stop stop-color="#FFCC00"/>
<stop offset="1" stop-color="#FFA800"/>
</linearGradient>
</defs>
</svg>
