<?xml version="1.0" encoding="UTF-8" standalone="no"?>
<!-- Created with Inkscape (http://www.inkscape.org/) -->

<svg
   width="64pt"
   height="64pt"
   viewBox="0 0 22.577778 22.577778"
   version="1.1"
   id="svg831"
   inkscape:version="1.1.2 (b8e25be833, 2022-02-05)"
   sodipodi:docname="Export - Unblash - 64px.svg"
   inkscape:export-filename="E:\Project Design\TR Icon Design Project\Carlos - Icon Design Project\September\Done\100%\Flat\01 - Rice Cooker.png"
   inkscape:export-xdpi="576"
   inkscape:export-ydpi="576"
   xmlns:inkscape="http://www.inkscape.org/namespaces/inkscape"
   xmlns:sodipodi="http://sodipodi.sourceforge.net/DTD/sodipodi-0.dtd"
   xmlns="http://www.w3.org/2000/svg"
   xmlns:svg="http://www.w3.org/2000/svg"
   xmlns:rdf="http://www.w3.org/1999/02/22-rdf-syntax-ns#"
   xmlns:cc="http://creativecommons.org/ns#"
   xmlns:dc="http://purl.org/dc/elements/1.1/">
  <defs
     id="defs825">
    <pattern
       id="EMFhbasepattern"
       patternUnits="userSpaceOnUse"
       width="6"
       height="6"
       x="0"
       y="0" />
    <pattern
       id="EMFhbasepattern-9"
       patternUnits="userSpaceOnUse"
       width="6"
       height="6"
       x="0"
       y="0" />
    <pattern
       id="EMFhbasepattern-0"
       patternUnits="userSpaceOnUse"
       width="6"
       height="6"
       x="0"
       y="0" />
    <pattern
       id="EMFhbasepattern-7"
       patternUnits="userSpaceOnUse"
       width="6"
       height="6"
       x="0"
       y="0" />
    <pattern
       id="EMFhbasepattern-2"
       patternUnits="userSpaceOnUse"
       width="6"
       height="6"
       x="0"
       y="0" />
    <pattern
       id="EMFhbasepattern-98"
       patternUnits="userSpaceOnUse"
       width="6"
       height="6"
       x="0"
       y="0" />
    <pattern
       id="EMFhbasepattern-6"
       patternUnits="userSpaceOnUse"
       width="6"
       height="6"
       x="0"
       y="0" />
    <pattern
       id="EMFhbasepattern-01"
       patternUnits="userSpaceOnUse"
       width="6"
       height="6"
       x="0"
       y="0" />
    <pattern
       id="EMFhbasepattern-07"
       patternUnits="userSpaceOnUse"
       width="6"
       height="6"
       x="0"
       y="0" />
    <pattern
       id="EMFhbasepattern-8"
       patternUnits="userSpaceOnUse"
       width="6"
       height="6"
       x="0"
       y="0" />
    <pattern
       id="EMFhbasepattern-4"
       patternUnits="userSpaceOnUse"
       width="6"
       height="6"
       x="0"
       y="0" />
    <pattern
       id="EMFhbasepattern-40"
       patternUnits="userSpaceOnUse"
       width="6"
       height="6"
       x="0"
       y="0" />
    <pattern
       id="EMFhbasepattern-08"
       patternUnits="userSpaceOnUse"
       width="6"
       height="6"
       x="0"
       y="0" />
    <pattern
       id="EMFhbasepattern-04"
       patternUnits="userSpaceOnUse"
       width="6"
       height="6"
       x="0"
       y="0" />
    <pattern
       id="EMFhbasepattern-014"
       patternUnits="userSpaceOnUse"
       width="6"
       height="6"
       x="0"
       y="0" />
    <pattern
       id="EMFhbasepattern-27"
       patternUnits="userSpaceOnUse"
       width="6"
       height="6"
       x="0"
       y="0" />
    <pattern
       id="EMFhbasepattern-09"
       patternUnits="userSpaceOnUse"
       width="6"
       height="6"
       x="0"
       y="0" />
    <pattern
       id="EMFhbasepattern-5"
       patternUnits="userSpaceOnUse"
       width="6"
       height="6"
       x="0"
       y="0" />
    <pattern
       id="EMFhbasepattern-018"
       patternUnits="userSpaceOnUse"
       width="6"
       height="6"
       x="0"
       y="0" />
  </defs>
  <sodipodi:namedview
     id="base"
     pagecolor="#ffffff"
     bordercolor="#666666"
     borderopacity="1.0"
     inkscape:pageopacity="0.0"
     inkscape:pageshadow="2"
     inkscape:zoom="8.7304688"
     inkscape:cx="42.895749"
     inkscape:cy="47.07651"
     inkscape:document-units="pt"
     inkscape:current-layer="layer1"
     showgrid="false"
     units="pt"
     inkscape:window-width="958"
     inkscape:window-height="1041"
     inkscape:window-x="953"
     inkscape:window-y="0"
     inkscape:window-maximized="0"
     inkscape:pagecheckerboard="true"
     inkscape:showpageshadow="false"
     inkscape:object-paths="true"
     inkscape:snap-intersection-paths="true"
     inkscape:snap-smooth-nodes="true"
     inkscape:snap-midpoints="true"
     showguides="true"
     inkscape:snap-bbox="true"
     inkscape:bbox-nodes="true"
     inkscape:snap-nodes="false"
     inkscape:snap-global="true"
     inkscape:snap-others="false">
    <inkscape:grid
       type="xygrid"
       id="grid1378" />
    <sodipodi:guide
       position="0.97013831,21.607643"
       orientation="78.000048,0"
       id="guide1380"
       inkscape:locked="false" />
    <sodipodi:guide
       position="0.97013831,0.97013129"
       orientation="0,78.000005"
       id="guide1382"
       inkscape:locked="false" />
    <sodipodi:guide
       position="21.607639,0.97013129"
       orientation="-78.000048,0"
       id="guide1384"
       inkscape:locked="false" />
    <sodipodi:guide
       position="21.607639,21.607643"
       orientation="0,-78.000005"
       id="guide1386"
       inkscape:locked="false" />
  </sodipodi:namedview>
  <metadata
     id="metadata828">
    <rdf:RDF>
      <cc:Work
         rdf:about="">
        <dc:format>image/svg+xml</dc:format>
        <dc:type
           rdf:resource="http://purl.org/dc/dcmitype/StillImage" />
      </cc:Work>
    </rdf:RDF>
  </metadata>
  <g
     inkscape:label="Icon"
     inkscape:groupmode="layer"
     id="layer1"
     transform="translate(0,-274.42223)">
    <g
       id="g49568"
       style="display:inline;stroke-width:0.794897"
       transform="matrix(1.2580249,0,0,1.2580249,39.01088,-38.89593)">
      <path
         style="color:#000000;fill:#ececec;stroke-width:0.794897;stroke-linecap:round;stroke-linejoin:round;-inkscape-stroke:none"
         d="m -24.417969,251.94531 c -0.581365,0 -1.058594,0.47723 -1.058593,1.0586 v 11.64062 c -10e-7,0.58134 0.477245,1.05859 1.058593,1.05859 h 9.525391 c 0.581348,0 1.058594,-0.47725 1.058594,-1.05859 v -11.64062 c 0,-0.58137 -0.477229,-1.0586 -1.058594,-1.0586 z"
         id="path6871" />
      <path
         id="path14159"
         style="fill:#adadad;fill-opacity:1;stroke-width:0.794897;stroke-linecap:round;stroke-linejoin:round"
         d="m -19.654297,255.7793 c -2.550759,0 -4.632811,2.08205 -4.632812,4.63281 -6e-6,2.55076 2.082273,4.63086 4.632812,4.63086 2.55054,0 4.630865,-2.08032 4.630859,-4.63086 0,-2.55053 -2.080099,-4.63281 -4.630859,-4.63281 z" />
      <path
         id="path117791"
         style="color:#000000;fill:#cccccc;fill-opacity:1;stroke-width:3.00434;stroke-linecap:round;stroke-linejoin:round;-inkscape-stroke:none"
         d="m -58.287109,-106.28516 c 2.197285,0 4.001953,1.8027 4.001953,4 v 43.996098 c 0,2.19719 -1.804733,4.001953 -4.001953,4.001953 h 2 c 2.19722,0 4.001953,-1.804763 4.001953,-4.001953 v -43.996098 c 0,-2.1973 -1.804668,-4 -4.001953,-4 z"
         transform="matrix(0.26458334,0,0,0.26458334,0,280.06666)" />
      <path
         id="path147735"
         style="fill:#adadad;fill-opacity:1;stroke-width:3.00434;stroke-linecap:round;stroke-linejoin:round"
         d="m -96.289062,-80.708984 v 22.419922 c -4e-6,2.19719 1.802779,4.001953 4,4.001953 h 0.916015 c 0.641731,-0.833562 1.025391,-1.874105 1.025391,-2.998047 v -15 c 0,-3.86208 -2.488681,-7.181202 -5.941406,-8.423828 z"
         transform="matrix(0.26458334,0,0,0.26458334,0,280.06666)" />
      <path
         id="path92183"
         style="color:#000000;fill:#cccccc;fill-opacity:1;stroke-width:3.00434;stroke-linecap:round;stroke-linejoin:round;-inkscape-stroke:none"
         d="m -96.289062,-62.289062 v 4 c -4e-6,2.19719 1.802779,4.001953 4,4.001953 h 36.001953 c 2.19722,0 4.001953,-1.804763 4.001953,-4.001953 v -4 z"
         transform="matrix(0.26458334,0,0,0.26458334,0,280.06666)" />
      <path
         id="path24825"
         style="fill:#8f8f8f;fill-opacity:1;stroke-width:3.00434;stroke-linecap:round;stroke-linejoin:round"
         d="m -87.011719,-62.289062 c 3.197003,3.386773 7.723893,5.505859 12.728516,5.505859 5.004625,0 9.527567,-2.118987 12.722656,-5.505859 z"
         transform="matrix(0.26458334,0,0,0.26458334,0,280.06666)" />
      <path
         id="path150988"
         style="color:#000000;fill:#8f8f8f;fill-opacity:1;stroke-width:3.00434;stroke-linecap:round;stroke-linejoin:round;-inkscape-stroke:none"
         d="m -96.289062,-62.289062 v 4 c -5e-6,2.19719 1.802778,4.001953 4,4.001953 h 0.916015 c 0.641731,-0.833562 1.025391,-1.874105 1.025391,-2.998047 v -5.003906 z"
         transform="matrix(0.26458334,0,0,0.26458334,0,280.06666)" />
      <path
         style="color:#000000;fill:#cccccc;stroke-width:0.794897;stroke-linecap:round;stroke-linejoin:round;-inkscape-stroke:none"
         d="m -19.654297,256.17773 c -2.334863,0 -4.234374,1.89952 -4.234375,4.23438 -5e-6,2.33487 1.899507,4.23242 4.234375,4.23242 2.334868,0 4.232427,-1.89755 4.232422,-4.23242 0,-2.33486 -1.897558,-4.23438 -4.232422,-4.23438 z"
         id="path86559" />
      <path
         style="color:#000000;fill:#3a4d5c;fill-opacity:1;stroke-width:0.794897;stroke-linecap:round;stroke-linejoin:round;-inkscape-stroke:none"
         d="m -19.654297,257.50195 c -1.604246,0 -2.910155,1.30591 -2.910156,2.91016 -5e-6,1.60425 1.305905,2.91016 2.910156,2.91016 0.950204,0 1.797316,-0.45755 2.328125,-1.16407 A 0.26460996,0.26460996 0 0 0 -17.273437,262 v -3.17578 a 0.26460996,0.26460996 0 0 0 -0.05273,-0.1582 c -0.530769,-0.70703 -1.377514,-1.16407 -2.328125,-1.16407 z"
         id="path86175" />
      <path
         id="path21576"
         style="color:#000000;fill:#adadad;fill-opacity:1;stroke-width:0.794897;stroke-linecap:round;stroke-linejoin:round;-inkscape-stroke:none"
         d="m -17.538981,258.14449 c -0.808283,0 -1.472779,0.66448 -1.472779,1.47278 v 1.58801 c 0,0.80828 0.663564,1.47433 1.472779,1.47433 h 1.457275 c 0.41753,-0.65579 0.65991,-1.4337 0.659908,-2.26756 0,-0.8336 -0.242096,-1.61158 -0.659391,-2.26756 z" />
      <path
         id="path21371"
         style="fill:#143441;fill-opacity:1;stroke-width:3.00434;stroke-linecap:round;stroke-linejoin:round"
         d="m -67.28125,-82.765625 c -2.588176,0.472992 -4.574219,2.759821 -4.574219,5.476563 v 6.001953 c 0,2.71665 1.982309,5.008067 4.572266,5.482421 0.670804,-0.554058 1.276093,-1.185086 1.798828,-1.880859 a 1.0001006,1.0001006 0 0 0 0.199219,-0.597656 v -12.003906 a 1.0001006,1.0001006 0 0 0 -0.199219,-0.597657 c -0.522392,-0.69587 -1.126672,-1.326951 -1.796875,-1.880859 z"
         transform="matrix(0.26458334,0,0,0.26458334,0,280.06666)" />
      <path
         style="color:#000000;fill:#5aabdd;fill-opacity:1;stroke-width:0.794897;stroke-linecap:round;stroke-linejoin:round;-inkscape-stroke:none"
         d="m -23.623047,250.35742 c -0.435244,0 -0.794922,0.35772 -0.794922,0.79297 v 0.5293 c 0,0.43524 0.359678,0.79492 0.794922,0.79492 h 3.439453 c 0.435244,0 0.792969,-0.35968 0.792969,-0.79492 v -0.5293 c 0,-0.43525 -0.357725,-0.79297 -0.792969,-0.79297 z"
         id="path104972" />
      <path
         id="path39522"
         style="color:#000000;fill:#3485d0;fill-opacity:1;stroke-width:0.794897;stroke-linecap:round;stroke-linejoin:round;-inkscape-stroke:none"
         d="m -19.62409,250.58823 c -0.160577,-0.16628 -0.35851,-0.2332 -0.55967,-0.2332 l -3.43957,0.002 c -0.342891,0 -0.638619,0.22213 -0.748791,0.52917 h 3.392517 c 0.435244,0 0.792716,0.35798 0.792716,0.79323 v 0.52917 l 0.730671,-0.21682 z"
         sodipodi:nodetypes="ccccssccc" />
      <path
         style="color:#000000;fill:#dc1c4b;stroke-width:0.794897;stroke-linecap:round;stroke-linejoin:round;-inkscape-stroke:none"
         d="m -19.125,250.35742 c -0.435244,0 -0.794922,0.35772 -0.794922,0.79297 v 0.5293 c 0,0.43524 0.359678,0.79492 0.794922,0.79492 h 3.439453 c 0.435244,0 0.792969,-0.35968 0.792969,-0.79492 v -0.5293 c 0,-0.43525 -0.357725,-0.79297 -0.792969,-0.79297 z"
         id="path101293" />
      <path
         id="path110291"
         style="color:#000000;fill:#b01d47;fill-opacity:1;stroke-width:3.00434;stroke-linecap:round;stroke-linejoin:round;-inkscape-stroke:none"
         d="m -56.628906,-105.90625 c 0.285562,-0.47425 0.34188,-0.93489 0.34188,-1.38297 v -2 c 0,-1.75518 -1.353745,-2.99822 -2.996098,-2.99822 h -13 c -1.295966,0 -2.413678,0.83955 -2.830078,2 h 13.830078 c 1.645017,0 2.996094,1.35301 2.996094,2.99805 v 2 z"
         transform="matrix(0.26458334,0,0,0.26458334,0,280.06666)"
         sodipodi:nodetypes="ccccscsscc" />
      <path
         id="path6679"
         style="color:#000000;fill:#cccccc;fill-opacity:1;stroke-width:3.00434;stroke-linecap:round;stroke-linejoin:round;-inkscape-stroke:none"
         d="m -92.289062,-106.28516 c -2.197286,0 -4.000004,1.8027 -4,4 v 9.996098 h 44.003906 v -9.996098 c 0,-2.1973 -1.804668,-4 -4.001953,-4 z"
         transform="matrix(0.26458334,0,0,0.26458334,0,280.06666)" />
      <path
         style="color:#000000;fill:#5aabdd;stroke-width:0.794897;stroke-linecap:round;stroke-linejoin:round;-inkscape-stroke:none"
         d="m -23.623047,253.00391 a 0.26460996,0.26460996 0 0 0 -0.265625,0.26367 v 0.52929 c 0,0.43525 0.359677,0.79493 0.794922,0.79493 h 1.056641 c 0.435245,0 0.794922,-0.35968 0.794922,-0.79493 v -0.52929 a 0.26460996,0.26460996 0 0 0 -0.265625,-0.26367 z"
         id="path93994" />
      <path
         id="path194523"
         style="color:#000000;fill:#3485d0;fill-opacity:1;stroke-width:3.00434;stroke-linecap:round;stroke-linejoin:round;-inkscape-stroke:none"
         d="m -82.285156,-101.28711 v 2.000001 c 0,1.619335 -1.317462,2.962346 -2.927735,3.003906 h 1.923829 c 1.64502,0 3.003906,-1.358867 3.003906,-3.003906 v -2.000001 z"
         transform="matrix(0.26458334,0,0,0.26458334,0,280.06666)"
         sodipodi:nodetypes="cscsscc" />
      <path
         style="color:#000000;fill:#3a4d5c;stroke-width:0.794897;stroke-linecap:round;stroke-linejoin:round;-inkscape-stroke:none"
         d="m -24.152344,253.00391 a 0.2645835,0.2645835 0 0 0 -0.265625,0.26367 0.2645835,0.2645835 0 0 0 0.265625,0.26562 h 3.173828 a 0.2645835,0.2645835 0 0 0 0.265625,-0.26562 0.2645835,0.2645835 0 0 0 -0.265625,-0.26367 z"
         id="path36485" />
      <path
         style="color:#000000;fill:#3a4d5c;stroke-width:0.794897;stroke-linecap:round;stroke-linejoin:round;-inkscape-stroke:none"
         d="m -17.802734,254.0625 a 0.2645835,0.2645835 0 0 0 -0.265625,0.26367 0.2645835,0.2645835 0 0 0 0.265625,0.26563 h 2.646484 a 0.2645835,0.2645835 0 0 0 0.263672,-0.26563 0.2645835,0.2645835 0 0 0 -0.263672,-0.26367 z"
         id="path37212" />
      <path
         style="color:#000000;fill:#dc1c4b;fill-opacity:1;stroke-width:0.794897;stroke-linecap:round;stroke-linejoin:round;-inkscape-stroke:none"
         d="m -15.422575,253.00316 a 0.2645835,0.2645835 0 0 0 -0.263672,0.26562 0.2645835,0.2645835 0 0 0 0.263672,0.26367 0.2645835,0.2645835 0 0 0 0.265625,-0.26367 0.2645835,0.2645835 0 0 0 -0.265625,-0.26562 z"
         id="path37294" />
      <path
         style="color:#000000;fill:#dc1c4b;fill-opacity:1;stroke-width:0.794897;stroke-linecap:round;stroke-linejoin:round;-inkscape-stroke:none"
         d="m -16.480909,253.00316 a 0.2645835,0.2645835 0 0 0 -0.263672,0.26562 0.2645835,0.2645835 0 0 0 0.263672,0.26367 0.2645835,0.2645835 0 0 0 0.265625,-0.26367 0.2645835,0.2645835 0 0 0 -0.265625,-0.26562 z"
         id="path37567" />
      <path
         style="color:#000000;fill:#5aabdd;fill-opacity:1;stroke-width:0.794897;stroke-linecap:round;stroke-linejoin:round;-inkscape-stroke:none"
         d="m -17.539243,253.00316 a 0.2645835,0.2645835 0 0 0 -0.263672,0.26562 0.2645835,0.2645835 0 0 0 0.263672,0.26367 0.2645835,0.2645835 0 0 0 0.265625,-0.26367 0.2645835,0.2645835 0 0 0 -0.265625,-0.26562 z"
         id="path37569" />
      <path
         style="color:#000000;fill:#143441;fill-opacity:1;stroke-width:0.794897;stroke-linecap:round;stroke-linejoin:round;-inkscape-stroke:none"
         d="m -19.09375,252.9707 a 0.2645835,0.2645835 0 0 0 -0.1875,0.0781 l -0.1875,0.1875 a 0.2645835,0.2645835 0 0 0 0,0.37304 0.2645835,0.2645835 0 0 0 0.375,0 l 0.1875,-0.18554 a 0.2645835,0.2645835 0 0 0 0,-0.375 0.2645835,0.2645835 0 0 0 -0.1875,-0.0781 z"
         id="path37627" />
      <path
         style="color:#000000;fill:#3a4d5c;stroke-width:0.794897;stroke-linecap:round;stroke-linejoin:round;-inkscape-stroke:none"
         d="m -20.216797,253.23633 c -0.307766,0.30776 -0.307769,0.81528 0,1.12304 0.307763,0.30777 0.815284,0.30777 1.123047,0 0.307766,-0.30776 0.307769,-0.81528 0,-1.12304 -0.307763,-0.30777 -0.815284,-0.30777 -1.123047,0 z"
         id="path94018" />
      <path
         style="color:#000000;fill:#ececec;stroke-width:0.794897;stroke-linecap:round;stroke-linejoin:round;-inkscape-stroke:none"
         d="m -28.125,256.44336 c -0.435246,0 -0.792958,0.35773 -0.792969,0.79297 v 1.58789 a 0.26460996,0.26460996 0 0 0 0.263672,0.26367 h 1.853516 a 0.26460996,0.26460996 0 0 0 0.263672,-0.26367 v -1.58789 c -1.1e-5,-0.43524 -0.357723,-0.79297 -0.792969,-0.79297 z"
         id="path146829" />
      <path
         id="path94386"
         style="color:#000000;fill:#cccccc;fill-opacity:1;stroke-width:3.00434;stroke-linecap:round;stroke-linejoin:round;-inkscape-stroke:none"
         d="m -105.29492,-87.154297 c 1.64502,0 2.998,1.222186 2.99804,2.867188 v 4.998047 h 1.00196 c 0.55073,-0.0011 0.99691,-0.447312 0.99804,-0.998047 v -6 c -4e-5,-1.645002 -1.35302,-2.998047 -2.99804,-2.998047 h -3.00391 c -1.34436,0 -2.49219,0.90294 -2.86719,2.130859 z"
         transform="matrix(0.26458334,0,0,0.26458334,0,280.06666)"
         sodipodi:nodetypes="ccccccsscc" />
      <path
         style="color:#000000;fill:#cccccc;stroke-width:0.794897;stroke-linecap:round;stroke-linejoin:round;-inkscape-stroke:none"
         d="m -28.650391,258.03125 c -0.438354,0 -0.798828,0.36048 -0.798828,0.79883 v 1.05273 a 0.26460996,0.26460996 0 0 0 0.263672,0.26367 h 2.916016 a 0.26460996,0.26460996 0 0 0 0.263672,-0.26367 v -1.05273 c 0,-0.43835 -0.360474,-0.79883 -0.798828,-0.79883 z"
         id="path146835" />
      <path
         id="path95446"
         style="color:#000000;fill:#adadad;fill-opacity:1;stroke-width:3.00434;stroke-linecap:round;stroke-linejoin:round;-inkscape-stroke:none"
         d="m -103.30859,-81.148438 c 1.65677,0 3.01953,1.22801 3.01953,2.884766 v 2.97461 h 1.001951 c 0.549978,-0.0011 0.995845,-0.446119 0.998047,-0.996094 v -3.978516 c 0,-1.656756 -1.362761,-3.019531 -3.019528,-3.019531 h -6.97657 c -1.34959,0 -2.50313,0.904 -2.88476,2.134765 z"
         transform="matrix(0.26458334,0,0,0.26458334,0,280.06666)"
         sodipodi:nodetypes="cscccssscc" />
      <path
         style="color:#000000;fill:#50b86b;stroke-width:0.794897;stroke-linecap:round;stroke-linejoin:round;-inkscape-stroke:none"
         d="m -29.179687,259.08789 c -0.581359,0 -1.058594,0.47724 -1.058594,1.05859 v 4.76368 c 0,0.43521 0.357749,0.79296 0.792969,0.79296 h 4.234375 c 0.435219,0 0.792968,-0.35775 0.792968,-0.79296 v -3.96875 c 0,-1.01975 -0.831813,-1.85352 -1.851562,-1.85352 z"
         id="path146841" />
      <path
         style="color:#000000;fill:#26783f;stroke-width:0.794897;stroke-linecap:round;stroke-linejoin:round;-inkscape-stroke:none"
         d="m -26.533203,260.14648 c -0.289119,0 -0.529293,0.24019 -0.529297,0.5293 a 0.2645835,0.2645835 0 0 0 0.263672,0.26563 0.2645835,0.2645835 0 0 0 0.265625,-0.26563 h 0.263672 c 0.149258,0 0.263673,0.11637 0.263672,0.26563 V 262 h -0.792969 a 0.2645835,0.2645835 0 0 0 -0.263672,0.26367 0.2645835,0.2645835 0 0 0 0.263672,0.26563 h 1.058594 a 0.26460996,0.26460996 0 0 0 0.263672,-0.26563 v -1.32226 c 2e-6,-0.43525 -0.357724,-0.79493 -0.792969,-0.79493 z"
         id="rect15622" />
      <path
         id="path146851"
         style="color:#000000;fill:#26783f;stroke-width:0.794897;stroke-linecap:round;stroke-linejoin:round;-inkscape-stroke:none"
         d="m -28.386896,260.4121 -1.851569,-5e-5 v 0.52916 h 1.851567 c 0.08837,1.05598 0.1762,2.1164 0.264098,3.17396 h -2.115632 v 0.52917 h 2.117183 c 0.28912,0 0.52968,-0.24005 0.529685,-0.52917 -0.08888,-1.05985 -0.177232,-2.12413 -0.265649,-3.18556 -3e-6,-0.27747 -0.240564,-0.51751 -0.529683,-0.51751 z"
         sodipodi:nodetypes="cccccccsccc" />
      <path
         style="color:#000000;fill:#26783f;stroke-width:0.794897;stroke-linecap:round;stroke-linejoin:round;-inkscape-stroke:none"
         d="m -26.798828,263.05664 a 0.2645835,0.2645835 0 0 0 -0.263672,0.26563 0.2645835,0.2645835 0 0 0 0.263672,0.26367 h 1.058594 a 0.2645835,0.2645835 0 0 0 0.263672,-0.26367 0.2645835,0.2645835 0 0 0 -0.263672,-0.26563 z"
         id="path16868" />
      <path
         id="path17182"
         style="color:#000000;fill:#26783f;stroke-width:3.00434;stroke-linecap:round;stroke-linejoin:round;-inkscape-stroke:none"
         d="m -106.28516,-60.289062 a 1.0000006,1.0000006 0 0 0 -1.0039,1.003906 1.0000006,1.0000006 0 0 0 1.0039,0.996094 h 13.996098 v -2 z"
         transform="matrix(0.26458334,0,0,0.26458334,0,280.06666)" />
      <path
         id="path38329"
         style="color:#000000;fill:#b01d47;stroke-width:3.00434;stroke-linecap:round;stroke-linejoin:round;-inkscape-stroke:none"
         d="m -67.285156,-109.28906 a 1.0000006,1.0000006 0 0 0 -1.003906,1.0039 1.0000006,1.0000006 0 0 0 1.003906,0.9961 h 10.998047 v -2 z"
         transform="matrix(0.26458334,0,0,0.26458334,0,280.06666)" />
      <path
         id="path17613"
         style="color:#000000;fill:#3485d0;fill-opacity:1;stroke-width:3.00434;stroke-linecap:round;stroke-linejoin:round;-inkscape-stroke:none"
         d="m -92.289062,-109.28906 v 2 h 11 c 0.552476,0.002 1.002001,-0.4436 1.003906,-0.9961 0.0022,-0.55536 -0.448535,-1.00609 -1.003906,-1.0039 z"
         transform="matrix(0.26458334,0,0,0.26458334,0,280.06666)" />
      <path
         style="color:#000000;fill:#a7e3fa;fill-opacity:1;stroke-width:0.794897;stroke-linecap:round;stroke-linejoin:round;-inkscape-stroke:none"
         d="m -19.654297,258.03125 c 0.756023,0 1.415207,0.36082 1.851563,0.9082 v 2.94532 c -0.436372,0.54695 -1.095891,0.9082 -1.851563,0.9082 -1.318268,0 -2.382816,-1.06259 -2.382812,-2.38086 1e-6,-1.31827 1.064548,-2.38086 2.382812,-2.38086 z"
         id="path86181" />
      <path
         id="path85983"
         style="color:#000000;fill:#2c5eb5;stroke-width:0.794897;stroke-linecap:round;stroke-linejoin:round;-inkscape-stroke:none"
         d="m -17.802531,259.80691 -0.566374,0.078 a 0.26460996,0.26460996 0 0 0 -0.06098,0.0176 l -0.775147,0.3085 c -0.288404,0.11537 -0.596002,0.12218 -1.013891,-0.045 -0.513014,-0.2052 -0.989641,-0.21076 -1.404049,-0.045 l -0.410828,0.16381 c -0.0022,0.042 -0.0031,0.0845 -0.0031,0.12713 -4e-6,1.31827 1.064532,2.38073 2.3828,2.38073 0.755672,0 1.415195,-0.36101 1.851567,-0.90796 z" />
      <path
         id="path90037"
         style="color:#000000;fill:#3a4d5c;fill-opacity:1;stroke-width:0.794897;stroke-linecap:round;stroke-linejoin:round;-inkscape-stroke:none"
         d="m -17.538981,258.56048 c -0.581366,0 -1.056784,0.47541 -1.056784,1.05678 v 1.58802 c 0,0.58137 0.475418,1.05833 1.056784,1.05833 h 1.690335 c 0.273109,-0.55949 0.426849,-1.18787 0.426848,-1.85156 0,-0.66367 -0.153763,-1.29188 -0.426848,-1.85157 z" />
      <path
         style="color:#000000;fill:#143441;fill-opacity:1;stroke-width:0.794897;stroke-linecap:round;stroke-linejoin:round;-inkscape-stroke:none"
         d="m -17.273437,259.61719 a 0.2645835,0.2645835 0 0 0 -0.265625,0.26562 v 1.0586 a 0.2645835,0.2645835 0 0 0 0.265625,0.26367 0.2645835,0.2645835 0 0 0 0.263671,-0.26367 v -1.0586 a 0.2645835,0.2645835 0 0 0 -0.263671,-0.26562 z"
         id="path33990" />
      <path
         id="path16753"
         style="color:#000000;fill:#26783f;fill-opacity:1;stroke-width:3.00434;stroke-linecap:round;stroke-linejoin:round;-inkscape-stroke:none"
         d="m -114.28711,-68.283203 v 2 h 4.00195 c 0.55229,-0.0022 0.99826,-0.451617 0.9961,-1.003906 -0.002,-0.54924 -0.44686,-0.993956 -0.9961,-0.996094 z m 8.74805,3.994141 h -8.74805 v 2 h 8.74805 z"
         transform="matrix(0.26458334,0,0,0.26458334,0,280.06666)"
         sodipodi:nodetypes="cccsccccccc" />
      <path
         id="path96818"
         style="color:#000000;fill:#349951;fill-opacity:1;stroke-width:3.00434;stroke-linecap:round;stroke-linejoin:round;-inkscape-stroke:none"
         d="m -101.28711,-76.931641 c 3.852136,0.125189 6.998048,2.792312 6.998048,6.646485 v 15 c 0,0.300701 -0.045,0.592526 -0.128907,0.867187 1.22702,-0.375545 2.128906,-1.52356 2.128907,-2.867187 v -15 c 0,-3.854173 -3.143878,-7.003906 -6.998047,-7.003906 h -10.998051 c -1.61284,0 -3.01346,0.971483 -3.64453,2.357421 z"
         transform="matrix(0.26458334,0,0,0.26458334,0,280.06666)"
         sodipodi:nodetypes="csscsssscc" />
      <path
         id="path99945"
         style="color:#000000;fill:#184e28;fill-opacity:1;stroke-width:3.00434;stroke-linecap:round;stroke-linejoin:round;-inkscape-stroke:none"
         d="m -94.289062,-60.289062 v 2 h 2 v -2 z"
         transform="matrix(0.26458334,0,0,0.26458334,0,280.06666)" />
      <path
         id="path113262"
         style="color:#000000;fill:#801231;fill-opacity:1;stroke-width:3.00434;stroke-linecap:round;stroke-linejoin:round;-inkscape-stroke:none"
         d="m -59.0625,-109.28906 c 0.479907,0.53241 0.775391,1.23332 0.775391,2 h 2 v -2 z"
         transform="matrix(0.26458334,0,0,0.26458334,0,280.06666)" />
      <path
         id="path115990"
         style="color:#000000;fill:#8f8f8f;fill-opacity:1;stroke-width:3.00434;stroke-linecap:round;stroke-linejoin:round;-inkscape-stroke:none"
         d="m -58.287109,-103.92969 c 2.197178,0.0217 4.001953,1.44723 4.001953,3.64453 v 7.996098 h 2 v -9.996098 c 0,-2.1973 -1.804668,-4 -4.001953,-4 h -36.001953 c -1.61208,0 -3.00941,0.97087 -3.640626,2.35547 z"
         transform="matrix(0.26458334,0,0,0.26458334,0,280.06666)"
         sodipodi:nodetypes="csccssscc" />
      <path
         id="path119360"
         style="color:#000000;fill:#8f8f8f;fill-opacity:1;stroke-width:3.00434;stroke-linecap:round;stroke-linejoin:round;-inkscape-stroke:none"
         d="m -54.285156,-62.289062 v 4 c 0,2.19719 -1.804733,4.001953 -4.001953,4.001953 h 2 c 2.19722,0 4.001953,-1.804763 4.001953,-4.001953 v -4 z"
         transform="matrix(0.26458334,0,0,0.26458334,0,280.06666)" />
      <path
         id="path196558"
         style="color:#000000;fill:#143441;fill-opacity:1;stroke-width:3.00434;stroke-linecap:round;stroke-linejoin:round;-inkscape-stroke:none"
         d="m -74.287109,-102.2793 c -0.770347,0 -1.541448,0.29144 -2.123047,0.87305 -0.360371,0.36036 -0.609013,0.79351 -0.746094,1.25391 1.025677,-0.3054 2.187403,-0.0568 2.990234,0.74609 0.802768,0.802744 1.051345,1.964638 0.746094,2.990234 0.46051,-0.137062 0.893459,-0.385638 1.253906,-0.746093 1.16321,-1.163188 1.163222,-3.080951 0,-4.244141 -0.581599,-0.58161 -1.350746,-0.87305 -2.121093,-0.87305 z"
         transform="matrix(0.26458334,0,0,0.26458334,0,280.06666)" />
    </g>
  </g>
</svg>
