<?xml version="1.0" ?><svg data-name="Layer 2" id="Layer_2" viewBox="0 0 272 272" xmlns="http://www.w3.org/2000/svg"><defs><style>.cls-1{fill:#009788;}.cls-2{fill:#ffeb3c;}.cls-3{fill:#03a9f5;}</style></defs><title/><path class="cls-1" d="M24,201.06H249a15,15,0,0,1,15,15V217a15,15,0,0,1-15,15H24a0,0,0,0,1,0,0V201.06a0,0,0,0,1,0,0Z"/><path class="cls-1" d="M24,168H249a15,15,0,0,1,15,15v.94a15,15,0,0,1-15,15H24a0,0,0,0,1,0,0V168A0,0,0,0,1,24,168Z"/><path class="cls-1" d="M24,168H44a0,0,0,0,1,0,0v64a0,0,0,0,1,0,0H24A16,16,0,0,1,8,216V184A16,16,0,0,1,24,168Z"/><path class="cls-2" d="M24,141H251a13,13,0,0,1,13,13v1a13,13,0,0,1-13,13H24a0,0,0,0,1,0,0V141A0,0,0,0,1,24,141Z"/><path class="cls-2" d="M24,112H251a13,13,0,0,1,13,13v1a13,13,0,0,1-13,13H24a0,0,0,0,1,0,0V112A0,0,0,0,1,24,112Z"/><path class="cls-2" d="M24,112H44a0,0,0,0,1,0,0v56a0,0,0,0,1,0,0H24A16,16,0,0,1,8,152V128A16,16,0,0,1,24,112Z"/><path class="cls-1" d="M24,89H180.5A11.5,11.5,0,0,1,192,100.5v0A11.5,11.5,0,0,1,180.5,112H24a0,0,0,0,1,0,0V89A0,0,0,0,1,24,89Z"/><path class="cls-1" d="M24,64H180.5A11.5,11.5,0,0,1,192,75.5v0A11.5,11.5,0,0,1,180.5,87H24a0,0,0,0,1,0,0V64a0,0,0,0,1,0,0Z"/><path class="cls-1" d="M24,64H44a0,0,0,0,1,0,0v48a0,0,0,0,1,0,0H24A16,16,0,0,1,8,96V80A16,16,0,0,1,24,64Z"/><path class="cls-3" d="M24,53H178.5a5.5,5.5,0,0,1,5.5,5.5v0a5.5,5.5,0,0,1-5.5,5.5H24a0,0,0,0,1,0,0V53A0,0,0,0,1,24,53Z"/><path class="cls-3" d="M24,40H178.5a5.5,5.5,0,0,1,5.5,5.5v0a5.5,5.5,0,0,1-5.5,5.5H24a0,0,0,0,1,0,0V40A0,0,0,0,1,24,40Z"/><path class="cls-3" d="M20,40H32a0,0,0,0,1,0,0V64a0,0,0,0,1,0,0H20A12,12,0,0,1,8,52v0A12,12,0,0,1,20,40Z"/></svg>