<svg viewBox="0 0 100 100" xmlns="http://www.w3.org/2000/svg" xmlns:xlink="http://www.w3.org/1999/xlink" width="100" height="100">
<defs>



<g id="bg" fill="#ff9311" class="bg"><path d="M0,50a50,50 0 1,0 100,0a50,50 0 1,0 -100,0"/></g><g id="fg"><path opacity="0.1" d="M85.355,14.645l-70.711,70.71c19.526,19.526,51.185,19.526,70.711,0 C104.882,65.83,104.882,34.171,85.355,14.645z"/><path opacity="0.1" d="M50,0v100c27.614,0,50-22.386,50-50S77.614,0,50,0z"/></g> 
 <path fill="#002a4a" id="i-447" d="M31,31.5c0.97,0,2-0.602,2-1.5c0,1.16-0.22,2.26-0.62,3.279C31.07,36.619,27.8,39,24,39s-7.07-2.381-8.38-5.721 C15.22,32.26,15,31.16,15,30c0,0.898,1.03,1.5,2,1.5c0.6,0,2-0.24,2-2.5h2c0,2.17,1.89,2.75,3,2.75c1.109,0,3-0.58,3-2.75h2 C29,31.26,30.4,31.5,31,31.5z M40,2v44H8V2H40z M14,10c1.1,0,2-0.9,2-2c0-1.102-0.9-2-2-2s-2,0.898-2,2C12,9.1,12.9,10,14,10z M35,30c0-6.07-4.93-11-11-11c-6.07,0-11,4.93-11,11c0,6.068,4.93,11,11,11C30.07,41,35,36.068,35,30z M36,6H26v4h10V6z"/> 
</defs>
<use x="0" y="0" class="bg" xlink:href="#bg"/>
<use x="26" y="26" xlink:href="#i-447"/>
<use x="0" y="0" xlink:href="#fg"/>
</svg>